<svg xmlns:xlink="http://www.w3.org/1999/xlink" viewBox="0 0 55.691 55.687"><defs><style>.a{fill:url(#a)}</style><linearGradient id="a" x1=".391" x2=".56" y1=".198" y2="1" gradientUnits="objectBoundingBox"><stop offset="0" stop-color="#3337aa"/><stop offset="1" stop-color="#2982aa"/></linearGradient></defs><path d="M-17130.508-3698.312a4,4,0,0,1-4-4v-19.494H-17154a4,4,0,0,1-4-4v-.7a4,4,0,0,1,4-4h19.494V-3750a4,4,0,0,1,4-4h.7a4,4,0,0,1,4,4v19.494h19.494a4,4,0,0,1,4,4v.7a4,4,0,0,1-4,4h-19.494v19.494a4,4,0,0,1-4,4Z" class="a" transform="translate(17158.002 3753.998)"/></svg>