<svg xmlns="http://www.w3.org/2000/svg" xmlns:xlink="http://www.w3.org/1999/xlink" id="Layer_1" x="0" y="0" version="1.1" viewBox="0 0 595.3 595.3" xml:space="preserve" style="enable-background:new 0 0 595.3 595.3"><style type="text/css">.st0{fill:#3a439b}.st1{fill:url(#SVGID_1_)}</style><path d="M431,219L431,219c-3.1-28-25.2-50.2-53.3-53.3h0c-53-5.9-106.4-5.9-159.4,0h0c-28,3.1-50.2,25.2-53.3,53.3v0	c-5.9,53-5.9,106.4,0,159.4v0c3.1,28,25.2,50.2,53.3,53.3h0c20.9,2.3,41.9,3.7,62.9,4.2V312.6h-29.7l-32.3-29.5h55.3	c3.9,7.8,11.4,13.5,20.2,15.1V436c2.1,0,4.3,0,6.4,0V298.2c8.9-1.6,16.3-7.3,20.2-15.1h55.3l-32.3,29.5h-29.7v123.2	c21-0.5,42-1.9,62.9-4.2h0c28-3.1,50.2-25.2,53.3-53.3v0C436.9,325.4,436.9,271.9,431,219z" class="st0"/><linearGradient id="SVGID_1_" x1="160.666" x2="435.428" y1="298.665" y2="298.665" gradientUnits="userSpaceOnUse"><stop offset="0" style="stop-color:#000;stop-opacity:0"/><stop offset="1" style="stop-color:#000;stop-opacity:.6"/></linearGradient><path d="M431,219L431,219c-3.1-28-25.2-50.2-53.3-53.3h0c-53-5.9-106.4-5.9-159.4,0h0c-28,3.1-50.2,25.2-53.3,53.3v0	c-5.9,53-5.9,106.4,0,159.4v0c3.1,28,25.2,50.2,53.3,53.3h0c20.9,2.3,41.9,3.7,62.9,4.2V312.6h-29.7l-32.3-29.5h55.3	c3.9,7.8,11.4,13.5,20.2,15.1V436c2.1,0,4.3,0,6.4,0V298.2c8.9-1.6,16.3-7.3,20.2-15.1h55.3l-32.3,29.5h-29.7v123.2	c21-0.5,42-1.9,62.9-4.2h0c28-3.1,50.2-25.2,53.3-53.3v0C436.9,325.4,436.9,271.9,431,219z" class="st1"/></svg>